Coordinates
version=1
nRows=10
nColumns=22
inDegrees=yes

Units are S.I. units (second, meters, Newtons, ...)
If the header above contains a line with 'inDegrees', this indicates whether rotational values are in degrees (yes) or radians (no).

endheader
time	pelvis_tilt	pelvis_list	pelvis_rotation	pelvis_tx	pelvis_ty	pelvis_tz	hip_flexion_r	hip_adduction_r	hip_rotation_r	knee_angle_r	ankle_angle_r	subtalar_angle_r	hip_flexion_l	hip_adduction_l	hip_rotation_l	knee_angle_l	ankle_angle_l	subtalar_angle_l	lumbar_extension	lumbar_bending	lumbar_rotation
      2.90000000	     -0.21423129	     -6.46309628	     11.91130176	     -0.11965074	      0.95096469	     -0.28732899	     26.36392716	      3.71824168	     -8.54369033	    -27.76643766	      2.17483737	      3.72330636	     -6.80473274	     -6.44748965	     17.01812183	    -35.09665820	      6.92587189	     15.42554381	     -1.99901247	      6.06299251	    -10.09098303
      2.91000000	     -0.21982441	     -6.54778109	     11.83114573	     -0.11017767	      0.95195633	     -0.28623560	     25.84919824	      4.03941009	     -8.50630198	    -27.84509562	      2.68085528	      3.44589782	     -5.43557323	     -6.40388036	     16.60704792	    -37.83824334	      5.64917849	     16.07793015	     -1.91171031	      6.19568141	    -10.00594030
      2.92000000	     -0.22606015	     -6.66090322	     11.75709135	     -0.10092363	      0.95290441	     -0.28508903	     25.31024261	      4.39848516	     -8.46230273	    -27.84881521	      3.17965954	      3.17717803	     -3.95273055	     -6.41814165	     16.15910805	    -40.63612578	      4.51948905	     16.52823301	     -1.84014635	      6.34750181	     -9.91369063
      2.93000000	     -0.19688893	     -6.83948431	     11.67953514	     -0.09185013	      0.95383932	     -0.28385020	     24.71686472	      4.84821202	     -8.39341560	    -27.77719858	      3.64908601	      2.98820526	     -2.42136558	     -6.55211042	     15.66645813	    -43.42145522	      3.56639124	     16.67178511	     -1.81628119	      6.56689506	     -9.79628188
      2.94000000	     -0.22704118	     -7.00645141	     11.62538704	     -0.08302329	      0.95462598	     -0.28258357	     24.19158978	      5.25526047	     -8.37786996	    -27.70406413	      4.16827534	      2.74471364	     -0.75920980	     -6.69770735	     15.20825885	    -46.15757950	      2.84056794	     16.63161372	     -1.74863705	      6.74442459	     -9.69047594
      2.95000000	     -0.19537537	     -7.25519808	     11.54432800	     -0.07428514	      0.95546206	     -0.28117171	     23.56406643	      5.78872535	     -8.31234424	    -27.51572248	      4.61339183	      2.60914122	      0.85846921	     -7.00846463	     14.69320023	    -48.74006834	      2.37495157	     16.29509282	     -1.74584931	      7.00825241	     -9.54039932
      2.96000000	     -0.21434667	     -7.48725126	     11.46920277	     -0.06575189	      0.95620595	     -0.27975389	     22.99077437	      6.28436643	     -8.26028485	    -27.32294271	      5.07950295	      2.43602206	      2.52997684	     -7.31209073	     14.24424717	    -51.14591044	      2.08588427	     15.26954184	     -1.70607863	      7.23385184	     -9.37205828
      2.97000000	     -0.19374985	     -7.77480537	     11.39935998	     -0.05730411	      0.95698163	     -0.27826823	     22.34830248	      6.84580313	     -8.23285385	    -27.04684469	      5.51483357	      2.36221659	      4.14897767	     -7.73124179	     13.81805848	    -53.32642335	      2.07978911	     14.10127545	     -1.70225596	      7.51283982	     -9.20177588
      2.98000000	     -0.15428347	     -8.05976145	     11.28816636	     -0.04893245	      0.95781621	     -0.27672278	     21.64908919	      7.42963590	     -8.14006399	    -26.70107120	      5.90414721	      2.30751939	      5.68977274	     -8.18639640	     13.37965579	    -55.23131649	      2.23413272	     12.57412437	     -1.72717482	      7.78484209	     -8.97444627
      2.99000000	     -0.10267411	     -8.32551140	     11.13571246	     -0.04064315	      0.95868764	     -0.27513776	     20.91588756	      8.00593790	     -8.01254590	    -26.32321105	      6.26713442	      2.25738424	      7.14565235	     -8.65189567	     12.93005762	    -56.84665693	      2.54921216	     10.84177212	     -1.77741907	      8.02995474	     -8.69802266
